<svg xmlns="http://www.w3.org/2000/svg" width="0.19in" height="0.25in" viewBox="0 0 13.52 17.67"><path d="M14,1.15V11.29H3.82a2.22,2.22,0,0,0-1.12.31V2.09a.94.94,0,0,1,.94-.94Zm-12.4.94A2.06,2.06,0,0,1,2.18.63,2,2,0,0,1,3.64,0H14.53a.57.57,0,0,1,.56.57V16a.56.56,0,0,1-.56.56H10a.56.56,0,0,1-.49-.27.64.64,0,0,1,0-.57.53.53,0,0,1,.49-.28h4v-3H3.82A1.13,1.13,0,0,0,2.7,13.55v.56a1.28,1.28,0,0,0,.75,1.2.58.58,0,0,1,.37.49.56.56,0,0,1-.22.51.55.55,0,0,1-.55.07,2.44,2.44,0,0,1-1.46-2.25Z" transform="translate(-1.57 -0.02)" fill="#fff" fill-rule="evenodd"/><path d="M4.58,13.74a.17.17,0,0,1,.17-.19H8.52a.18.18,0,0,1,.19.17v3.77a.21.21,0,0,1-.05.13.23.23,0,0,1-.12.06.16.16,0,0,1-.13,0l-1.66-1.2a.18.18,0,0,0-.22,0l-1.65,1.2a.18.18,0,0,1-.25,0,.15.15,0,0,1,0-.14Z" transform="translate(-1.57 -0.02)" fill="#fff"/></svg>