<svg xmlns="http://www.w3.org/2000/svg" width="0.24in" height="0.24in" viewBox="0 0 17.6 17.6"><path d="M6.69,3.37A3.3,3.3,0,1,1,3.39.07,3.3,3.3,0,0,1,6.69,3.37Zm-5.5,0a2.2,2.2,0,1,0,2.2-2.2A2.19,2.19,0,0,0,1.19,3.37Z" transform="translate(-0.09 -0.07)" fill="#fff"/><path d="M10,6.67h.55a2.2,2.2,0,0,1,2.18,1.91l3.42-1.52a1.09,1.09,0,0,1,1.55,1v8.21a1.1,1.1,0,0,1-1.1,1.1,1,1,0,0,1-.45-.1l-3.42-1.52a2.19,2.19,0,0,1-2.18,1.91H2.29a2.19,2.19,0,0,1-2.2-2.2V8.87a2.2,2.2,0,0,1,2.2-2.2Zm6.6,9.61V8.07L12.74,9.78v4.79l3.85,1.71ZM1.19,8.87v6.6a1.1,1.1,0,0,0,1.1,1.1h8.25a1.1,1.1,0,0,0,1.1-1.1V8.87a1.1,1.1,0,0,0-1.1-1.1H2.29A1.1,1.1,0,0,0,1.19,8.87Z" transform="translate(-0.09 -0.07)" fill="#fff"/><path d="M10,6.67a3.3,3.3,0,1,0-3.3-3.3A3.3,3.3,0,0,0,10,6.67Zm-2.2-3.3A2.2,2.2,0,1,1,10,5.57,2.2,2.2,0,0,1,7.79,3.37Z" transform="translate(-0.09 -0.07)" fill="#fff"/></svg>