<svg xmlns="http://www.w3.org/2000/svg" width="0.22in" height="0.2in" viewBox="0 0 15.79 14.64"><path d="M1.33,7.39A6.09,6.09,0,0,1,7.42,1.31a6.15,6.15,0,0,1,3,.81.55.55,0,0,0,.55-1,7.17,7.17,0,1,0,3.6,6.22.56.56,0,0,0-1.11,0,6.09,6.09,0,1,1-12.17,0Z" transform="translate(-0.1 -0.08)" fill="#e57231" stroke="#e57231" stroke-miterlimit="10" stroke-width="0.25"/><path d="M15.48,2.18a.52.52,0,0,0-.74-.74h0l-6.94,7L5,5.62a.52.52,0,0,0-.74.74L7.43,9.5a.52.52,0,0,0,.73,0h0Z" transform="translate(-0.1 -0.08)" fill="#005694" stroke="#005694" stroke-miterlimit="10" stroke-width="0.5"/></svg>