<svg xmlns="http://www.w3.org/2000/svg" width="0.22in" height="0.2in" viewBox="0 0 15.77 14.64"><path d="M15.48,2.18a.52.52,0,0,0-.74-.74h0l-6.94,7L5,5.62a.52.52,0,0,0-.74.74L7.43,9.5a.52.52,0,0,0,.73,0h0Z" transform="translate(-0.11 -0.08)" fill="#005694" stroke="#005694" stroke-miterlimit="10" stroke-width="0.5"/><path d="M1.9,14.59A1.66,1.66,0,0,1,.24,12.93V1.86A1.66,1.66,0,0,1,1.9.2h8.85a.55.55,0,0,1,.55.55.55.55,0,0,1-.55.56H1.9a.56.56,0,0,0-.56.55V12.93a.56.56,0,0,0,.56.55H13a.56.56,0,0,0,.56-.55V7.39a.55.55,0,1,1,1.1,0v5.54A1.66,1.66,0,0,1,13,14.59Z" transform="translate(-0.11 -0.08)" fill="#e57231" stroke="#e57231" stroke-miterlimit="10" stroke-width="0.25"/></svg>