<svg xmlns="http://www.w3.org/2000/svg" width="0.24in" height="0.22in" viewBox="0 0 17.43 15.96"><path d="M2.78,1.63H1.91a1.87,1.87,0,0,0-1.75,2V13.91a1.86,1.86,0,0,0,1.75,2h8.73a1.86,1.86,0,0,0,1.75-2V3.6a1.87,1.87,0,0,0-1.75-2H9.77v1h.87a.93.93,0,0,1,.88,1V13.91a.93.93,0,0,1-.88,1H1.91a.93.93,0,0,1-.87-1V3.6a.93.93,0,0,1,.87-1h.87Z" transform="translate(-0.04 -0.04)" fill="#fff" stroke="#fff" stroke-miterlimit="10" stroke-width="0.25"/><path d="M7.52,1.16a.47.47,0,0,1,.44.5v1a.47.47,0,0,1-.44.5H4.9a.46.46,0,0,1-.43-.5v-1a.46.46,0,0,1,.43-.5ZM4.9.16a1.42,1.42,0,0,0-1.31,1.5v1A1.42,1.42,0,0,0,4.9,4.16H7.52a1.41,1.41,0,0,0,1.31-1.5v-1A1.41,1.41,0,0,0,7.52.16Z" transform="translate(-0.04 -0.04)" fill="#fff" stroke="#fff" stroke-miterlimit="10" stroke-width="0.25"/><path d="M15.26,2.6a.36.36,0,0,0-.49,0L13.61,3.74l2.6,2.55,1.15-1.14a.33.33,0,0,0,0-.48h0Zm.45,4.17L13.12,4.22,8.56,8.69H8.7A.35.35,0,0,1,9.05,9v.34H9.4a.35.35,0,0,1,.35.35v.34h.36a.35.35,0,0,1,.35.34v.35h.35a.35.35,0,0,1,.35.34v.15Zm-5.23,5.14a.25.25,0,0,1,0-.12v-.34h-.35a.36.36,0,0,1-.36-.35v-.34H9.4a.35.35,0,0,1-.35-.35v-.34H8.7a.35.35,0,0,1-.35-.34V9.38H8a.25.25,0,0,1-.12,0l-.13.12a.37.37,0,0,0-.07.12L6.27,13a.35.35,0,0,0,.2.45.39.39,0,0,0,.26,0l3.51-1.38a.28.28,0,0,0,.11-.08l.13-.12Z" transform="translate(-0.04 -0.04)" fill="#fff"/></svg>