<svg xmlns="http://www.w3.org/2000/svg" width="0.24in" height="0.22in" viewBox="0 0 17.28 15.86"><path d="M2.72,1.58H1.85a1.86,1.86,0,0,0-1.73,2V13.76a1.85,1.85,0,0,0,1.7,2h8.69a1.85,1.85,0,0,0,1.74-1.94V3.54a1.84,1.84,0,0,0-1.71-2H9.65v1h.86a.91.91,0,0,1,.87,1V13.76a.92.92,0,0,1-.85,1H1.85a.93.93,0,0,1-.86-1H1V3.54a.92.92,0,0,1,.85-1h.88Z" transform="translate(0.01 0)" stroke="#000" stroke-miterlimit="9.91" stroke-width="0.25"/><path d="M7.42,1.12a.46.46,0,0,1,.43.49h0v1a.47.47,0,0,1-.43.49H4.82a.46.46,0,0,1-.43-.48h0v-1a.45.45,0,0,1,.42-.49H7.42Zm-2.6-1a1.4,1.4,0,0,0-1.3,1.48v1a1.4,1.4,0,0,0,1.3,1.48h2.6A1.38,1.38,0,0,0,8.71,2.61v-1A1.39,1.39,0,0,0,7.42.13Z" transform="translate(0.01 0)" stroke="#000" stroke-miterlimit="9.91" stroke-width="0.25"/><path d="M15.09,2.55a.36.36,0,0,0-.49,0L13.45,3.68,16,6.2l1.14-1.13a.32.32,0,0,0,0-.46h0Zm.45,4.13L13,4.15,8.45,8.58h.14a.35.35,0,0,1,.34.31v.34h.35a.35.35,0,0,1,.35.35h0v.33H10a.35.35,0,0,1,.35.34v.35h.35a.34.34,0,0,1,.34.33v.15Zm-5.19,5.1a.24.24,0,0,1,0-.12v-.34H10A.35.35,0,0,1,9.65,11v-.33H9.28a.35.35,0,0,1-.35-.35h0V10H8.59a.34.34,0,0,1-.35-.33V9.27H7.77l-.13.12a.35.35,0,0,0-.07.12L6.18,12.86a.34.34,0,0,0,.19.44.39.39,0,0,0,.26,0l3.48-1.36.11-.08.13-.12Z" transform="translate(0.01 0)"/></svg>