<svg xmlns="http://www.w3.org/2000/svg" width="0.24in" height="0.24in" viewBox="0 0 17.36 17.41"><path d="M8.91,10.61c.34,0,.5-.24.55-.62,0-.54.2-.82.85-1.26a2.29,2.29,0,0,0,1-2A2.14,2.14,0,0,0,9.1,4.51,2.13,2.13,0,0,0,7,5.8a1.67,1.67,0,0,0-.14.69c0,.4.2.64.54.64S7.86,7,8,6.62A1.07,1.07,0,0,1,9,5.71a1,1,0,0,1,1,1.08c0,.57-.21.89-.82,1.33a1.85,1.85,0,0,0-.93,1.64v.11C8.32,10.3,8.53,10.61,8.91,10.61Z" transform="translate(-0.18 -0.16)"/><path d="M11.29,3l-1-1,.76-.75.67.68h.95A3.09,3.09,0,0,1,15.81,5V6l.68.67A3.1,3.1,0,0,1,16.53,11l-.05.05-.68.67v.95a3.09,3.09,0,0,1-3.05,3.14h-1l-.67.68a3.08,3.08,0,0,1-4.37,0l0,0L6,15.83H5A3.11,3.11,0,0,1,1.9,12.78V12.7l0-.95-.68-.67A3.1,3.1,0,0,1,1.18,6.7l.06,0L1.92,6l0-1A3.1,3.1,0,0,1,5,1.89H6l.67-.68A3.08,3.08,0,0,1,11,1.17l.05.05L10.31,2a2,2,0,0,0-2.86,0l0,0-1,1L5,3A2,2,0,0,0,3,5V5L3,6.43l-1,1a2,2,0,0,0,0,2.86l0,0,1,1,0,1.42a2,2,0,0,0,2,2H5l1.41,0,1,1a2,2,0,0,0,2.86,0l0,0,1-1,1.41,0a2,2,0,0,0,2-2,0,0,0,0,0,0,0V11.3l1-1a2,2,0,0,0,0-2.87l0,0-1-1V5a2,2,0,0,0-2-2H12.7Z" transform="translate(-0.18 -0.16)" stroke="#000" stroke-miterlimit="10" stroke-width="0.25"/><path d="M7.86,12.57a1,1,0,0,1,2,0h0a1,1,0,0,1-2,0Z" transform="translate(-0.18 -0.16)"/></svg>