<svg xmlns="http://www.w3.org/2000/svg" width="0.24in" height="0.24in" viewBox="0 0 17.62 17.26"><path d="M8.82,1.44a.08.08,0,0,1,.07,0,.1.1,0,0,1,.07,0A.22.22,0,0,1,9,1.51l7.44,14.17a.24.24,0,0,1,0,.23.19.19,0,0,1-.06.07l-.07,0H1.45l-.07,0a.19.19,0,0,1-.06-.07.24.24,0,0,1,0-.23L8.76,1.51A.11.11,0,0,1,8.82,1.44ZM10,.89A1.16,1.16,0,0,0,8.28.38a1.24,1.24,0,0,0-.45.51L.38,15.07a1.43,1.43,0,0,0,1.07,2.14H16.33a1.42,1.42,0,0,0,1.06-2.14Z" transform="translate(-0.08 -0.08)" fill="#fff" stroke="#fff" stroke-miterlimit="10" stroke-width="0.25"/><path d="M7.85,13.5a1,1,0,1,1,1,1.09A1.07,1.07,0,0,1,7.85,13.5ZM8,7a1,1,0,0,1,.84-1.08,1,1,0,0,1,1,.88.67.67,0,0,1,0,.2l-.36,3.82a.57.57,0,0,1-1.14,0Z" transform="translate(-0.08 -0.08)" fill="#fff"/></svg>