<svg xmlns="http://www.w3.org/2000/svg" width="0.2in" height="0.24in" viewBox="0 0 14.74 17.31"><path d="M8.86,1.22A6,6,0,0,0,2.72,7V8.14H4A1.19,1.19,0,0,1,5.18,9.29v3.47A1.19,1.19,0,0,1,4,13.91H2.72a1.19,1.19,0,0,1-1.23-1.15V7A7.16,7.16,0,0,1,8.86.06,7.16,7.16,0,0,1,16.23,7v6.92a3,3,0,0,1-3.07,2.88H10.54a1.25,1.25,0,0,1-1.07.58H8.25a1.16,1.16,0,1,1,0-2.31H9.47a1.25,1.25,0,0,1,1.07.58h2.62A1.78,1.78,0,0,0,15,13.91H13.77a1.19,1.19,0,0,1-1.23-1.15V9.29a1.19,1.19,0,0,1,1.23-1.15H15V7A6,6,0,0,0,8.86,1.22Z" transform="translate(-1.49 -0.06)"/></svg>