<svg xmlns="http://www.w3.org/2000/svg" width="0.22in" height="0.23in" viewBox="0 0 15.88 16.89"><path d="M8.1,13.7H7.31a1,1,0,0,1-1-.81.91.91,0,0,1,0-.17c0-.23,0-.47,0-.7a2.94,2.94,0,0,0-.53-1.44A3.16,3.16,0,0,0,5.16,10a4,4,0,0,1-.82-1,3.44,3.44,0,0,1-.42-1.2A3.29,3.29,0,0,1,4.3,5.61a4.17,4.17,0,0,1,2.57-2,4.54,4.54,0,0,1,1.6-.15,4.4,4.4,0,0,1,2.74,1.23,3.58,3.58,0,0,1,1,1.91,3.49,3.49,0,0,1-1,3.15c-.12.13-.25.23-.38.35A3,3,0,0,0,10,11.73a3.71,3.71,0,0,0-.05.67,3.69,3.69,0,0,1,0,.47,1,1,0,0,1-.84.81h-1Zm0-.7h.77a.27.27,0,0,0,.31-.28v-.43A3.64,3.64,0,0,1,10.5,9.47a3.37,3.37,0,0,0,.76-1,2.66,2.66,0,0,0,.27-.94,2.72,2.72,0,0,0-.31-1.63,3,3,0,0,0-.51-.71,3.58,3.58,0,0,0-3.32-1A3.25,3.25,0,0,0,5.46,5.26,2.8,2.8,0,0,0,4.74,7.9a3,3,0,0,0,1,1.59,4,4,0,0,1,.75.9A3.55,3.55,0,0,1,7,12.08c0,.22,0,.44,0,.65a.26.26,0,0,0,.29.27Z" transform="translate(-0.16 -0.03)" fill="#2e5014" stroke="#2e5014" stroke-miterlimit="10" stroke-width="0.4"/><path d="M8.1,15.3H7A.25.25,0,0,1,6.79,15a.24.24,0,0,1,.2-.22H9.24a.26.26,0,0,1,.18.28.23.23,0,0,1-.24.23Z" transform="translate(-0.16 -0.03)" fill="#2e5014" stroke="#2e5014" stroke-miterlimit="10" stroke-width="0.4"/><path d="M14.72,7h.84a.28.28,0,0,1,.28.21.26.26,0,0,1-.18.29l-.13,0H13.91c-.25,0-.38-.22-.27-.39A.28.28,0,0,1,13.89,7Z" transform="translate(-0.16 -0.03)" fill="#2e5014" stroke="#2e5014" stroke-miterlimit="10" stroke-width="0.4"/><path d="M4.07,3.43a.28.28,0,0,1-.37.25.39.39,0,0,1-.14-.08l-1.15-1a.26.26,0,0,1,.12-.45.34.34,0,0,1,.29.08l.73.66L4,3.24A.25.25,0,0,1,4.07,3.43Z" transform="translate(-0.16 -0.03)" fill="#2e5014" stroke="#2e5014" stroke-miterlimit="10" stroke-width="0.4"/><path d="M4.33,11.14a.25.25,0,0,1-.09.15l-.34.31-.81.73a.32.32,0,0,1-.28.08A.24.24,0,0,1,2.65,12l0,0,1.14-1a.31.31,0,0,1,.32-.07A.26.26,0,0,1,4.33,11.14Z" transform="translate(-0.16 -0.03)" fill="#2e5014" stroke="#2e5014" stroke-miterlimit="10" stroke-width="0.4"/><path d="M7.82,1.24V.48A.23.23,0,0,1,8,.25a.29.29,0,0,1,.3,0,.23.23,0,0,1,.1.2V2a.26.26,0,0,1-.26.26.27.27,0,0,1-.3-.19.28.28,0,0,1,0-.09V1.24Z" transform="translate(-0.16 -0.03)" fill="#2e5014" stroke="#2e5014" stroke-miterlimit="10" stroke-width="0.4"/><path d="M1.48,7H2.3a.28.28,0,0,1,.28.22.26.26,0,0,1-.18.28l-.12,0H.67c-.22,0-.36-.17-.29-.35A.28.28,0,0,1,.65,7Z" transform="translate(-0.16 -0.03)" fill="#2e5014" stroke="#2e5014" stroke-miterlimit="10" stroke-width="0.4"/><path d="M13.6,12.16a.26.26,0,0,1-.16.23.31.31,0,0,1-.31,0l0,0-1.15-1a.24.24,0,0,1,0-.37.3.3,0,0,1,.41,0l.43.39.72.65A.28.28,0,0,1,13.6,12.16Z" transform="translate(-0.16 -0.03)" fill="#2e5014" stroke="#2e5014" stroke-miterlimit="10" stroke-width="0.4"/><path d="M13.51,2.11a.29.29,0,0,1,.22.16.23.23,0,0,1,0,.27l0,0-1.14,1a.32.32,0,0,1-.31.08.25.25,0,0,1-.11-.43L12.36,3l.89-.8A.33.33,0,0,1,13.51,2.11Z" transform="translate(-0.16 -0.03)" fill="#2e5014" stroke="#2e5014" stroke-miterlimit="10" stroke-width="0.4"/><path d="M8.1,16.2h.49a.24.24,0,0,1,.22.2.27.27,0,0,1-.12.28.21.21,0,0,1-.11,0h-1a.25.25,0,0,1-.23-.26.24.24,0,0,1,.23-.26Z" transform="translate(-0.16 -0.03)" fill="#2e5014" stroke="#2e5014" stroke-miterlimit="10" stroke-width="0.4"/></svg>