<svg xmlns="http://www.w3.org/2000/svg" width="0.23in" height="0.25in" viewBox="0 0 16.61 17.66"><path d="M8.33,14.08H7.55a1,1,0,0,1-1-.8,1,1,0,0,1,0-.17c0-.24,0-.47,0-.71A2.83,2.83,0,0,0,6,11a3.27,3.27,0,0,0-.56-.62,4.09,4.09,0,0,1-.81-1,3.13,3.13,0,0,1-.42-1.2A3.32,3.32,0,0,1,4.53,6,4.1,4.1,0,0,1,7.11,4a4.3,4.3,0,0,1,1.6-.15,4.32,4.32,0,0,1,2.73,1.23,3.43,3.43,0,0,1,1,1.9,3.47,3.47,0,0,1-1,3.16c-.11.12-.25.23-.37.34a3,3,0,0,0-.91,1.65,3.67,3.67,0,0,0-.05.66c0,.16,0,.32,0,.48a1,1,0,0,1-.84.8l-.22,0Zm0-.69h.77a.29.29,0,0,0,.31-.28c0-.15,0-.29,0-.44a2.83,2.83,0,0,1,.09-.82,3.66,3.66,0,0,1,1.23-2,3.33,3.33,0,0,0,.75-1,2.48,2.48,0,0,0,.28-1,2.74,2.74,0,0,0-.32-1.63,3.09,3.09,0,0,0-.5-.7,3.6,3.6,0,0,0-3.32-1A3.25,3.25,0,0,0,5.7,5.64,2.79,2.79,0,0,0,5,8.29,3,3,0,0,0,6,9.88a4,4,0,0,1,.76.89,3.58,3.58,0,0,1,.54,1.69c0,.22,0,.44,0,.66a.27.27,0,0,0,.3.27Z" transform="translate(-0.04 -0.04)" stroke="#000" stroke-miterlimit="10" stroke-width="0.5"/><path d="M8.33,16.94h.5a.22.22,0,0,1,.21.2.25.25,0,0,1-.11.28.24.24,0,0,1-.12,0q-.48,0-1,0a.24.24,0,0,1-.23-.25.24.24,0,0,1,.23-.26Z" transform="translate(-0.04 -0.04)" stroke="#000" stroke-miterlimit="10" stroke-width="0.5"/><path d="M8.34,15.83H7.28a.26.26,0,0,1-.06-.52H9.38l.1,0a.26.26,0,0,1-.06.51Z" transform="translate(-0.04 -0.04)" stroke="#000" stroke-miterlimit="10" stroke-width="0.5"/><path d="M15.28,7.42h.84a.28.28,0,0,1,.28.21.25.25,0,0,1-.18.28.31.31,0,0,1-.13,0c-.54,0-1.08,0-1.62,0-.25,0-.38-.23-.27-.39a.28.28,0,0,1,.25-.13Z" transform="translate(-0.04 -0.04)" stroke="#000" stroke-miterlimit="10" stroke-width="0.5"/><path d="M4.11,3.62a.29.29,0,0,1-.38.24.27.27,0,0,1-.13-.07l-1.15-1a.25.25,0,0,1,.12-.44.31.31,0,0,1,.29.07l.73.67L4,3.42A.28.28,0,0,1,4.11,3.62Z" transform="translate(-0.04 -0.04)" stroke="#000" stroke-miterlimit="10" stroke-width="0.5"/><path d="M4.26,11.83a.29.29,0,0,1-.09.16l-.34.31L3,13a.32.32,0,0,1-.28.08.25.25,0,0,1-.16-.41l0,0,1.13-1a.35.35,0,0,1,.33-.08A.29.29,0,0,1,4.26,11.83Z" transform="translate(-0.04 -0.04)" stroke="#000" stroke-miterlimit="10" stroke-width="0.5"/><path d="M8.06,1.3c0-.25,0-.51,0-.76A.23.23,0,0,1,8.23.31a.3.3,0,0,1,.3,0,.25.25,0,0,1,.09.2V2a.26.26,0,0,1-.25.26.29.29,0,0,1-.31-.19V1.3Z" transform="translate(-0.04 -0.04)" stroke="#000" stroke-miterlimit="10" stroke-width="0.5"/><path d="M1.4,7.42h.83a.28.28,0,0,1,.28.22.26.26,0,0,1-.18.28l-.12,0H.59c-.22,0-.36-.18-.28-.35a.27.27,0,0,1,.27-.17Z" transform="translate(-0.04 -0.04)" stroke="#000" stroke-miterlimit="10" stroke-width="0.5"/><path d="M14.16,12.87a.27.27,0,0,1-.17.23.29.29,0,0,1-.3,0l0,0-1.15-1a.25.25,0,0,1,0-.38.32.32,0,0,1,.41,0l.43.39.72.66A.28.28,0,0,1,14.16,12.87Z" transform="translate(-0.04 -0.04)" stroke="#000" stroke-miterlimit="10" stroke-width="0.5"/><path d="M14,2.29a.26.26,0,0,1,.23.15.23.23,0,0,1,0,.28s0,0,0,0L13,3.78a.31.31,0,0,1-.32.07.25.25,0,0,1-.1-.43l.26-.24.89-.8A.32.32,0,0,1,14,2.29Z" transform="translate(-0.04 -0.04)" stroke="#000" stroke-miterlimit="10" stroke-width="0.5"/></svg>