<svg xmlns="http://www.w3.org/2000/svg" width="0.24in" height="0.24in" viewBox="0 0 17.44 17.61"><path d="M17.46,16.07l-.18.24c-.14.14-.29.09-.45.05-.51-.14-1-.33-1.55-.42a7.92,7.92,0,0,0-5.94,1.38l-.2.14a.41.41,0,0,1-.55,0,8.27,8.27,0,0,0-3.87-1.63,7.83,7.83,0,0,0-3.83.42,1,1,0,0,1-.29.07c-.22,0-.32-.1-.33-.37a.81.81,0,0,1,0-.16V3.66c0-.35.06-.44.33-.55s.66-.25,1-.36c.14,0,.2-.11.2-.3,0-.55,0-1.11,0-1.66S1.94.19,2.3.2A7.61,7.61,0,0,1,7.48,2.55,8.61,8.61,0,0,1,8.75,4.14l.11.16c.26-.35.5-.71.77-1A8,8,0,0,1,14.15.37,10.77,10.77,0,0,1,15.54.2c.29,0,.44.17.44.52,0,.62,0,1.23,0,1.84,0,.14,0,.2.15.23.34.11.67.23,1,.36a2.8,2.8,0,0,1,.32.2ZM15.2,12.25V1.1c-.3,0-.59.07-.87.14A7.81,7.81,0,0,0,9.37,5a.76.76,0,0,0-.11.36v10.2a1.86,1.86,0,0,0,0,.22A8.07,8.07,0,0,1,15.2,12.25ZM2.56,1.11v11.1a8,8,0,0,1,5.93,3.57V5.35a.5.5,0,0,0-.08-.27A8,8,0,0,0,4.33,1.5,6.76,6.76,0,0,0,2.56,1.11ZM1,15.32a8.59,8.59,0,0,1,6.3.37s0-.06,0-.07l-.08-.09a6.77,6.77,0,0,0-4.83-2.37c-.53,0-.61-.12-.61-.76V3.62c-.22.07-.41.15-.6.2S1,3.94,1,4.1V15.32ZM16,3.62v8.91c0,.45-.13.61-.49.62A6.66,6.66,0,0,0,11,15.1c-.18.17-.34.36-.52.54a9,9,0,0,1,6.28-.33V3.88Z" transform="translate(-0.14 -0.08)" stroke="#000" stroke-miterlimit="10" stroke-width="0.25"/></svg>