<svg xmlns="http://www.w3.org/2000/svg" width="0.24in" height="0.24in" viewBox="0 0 17.13 17.59"><path d="M.51,16.23a19.18,19.18,0,0,0,2.67-.1c1.07-.12,1.43-.25,2.48-.43.36-.06,4.32-.71,4.55,0,.13.37-1.07.9-.93,1.28s1.48.24,3.17.07c.44-.05,2.11-.23,4.59-.73l.48-.1" transform="translate(-0.49 -0.1)" fill="none" stroke="#000" stroke-miterlimit="10"/><path d="M7.55.16A.4.4,0,0,0,7,.29l-1,1.58L9.61,4l1-1.58a.39.39,0,0,0-.14-.54h0ZM9.21,4.68,5.65,2.55,1.92,8.78l.16,0A.39.39,0,0,1,2.56,9l.1.39L3,9.31a.4.4,0,0,1,.48.29l.1.38L4,9.89a.39.39,0,0,1,.48.28l.09.39.39-.1a.4.4,0,0,1,.48.29l0,.15ZM4.92,11.83a.31.31,0,0,1-.06-.13l-.09-.38-.39.1a.41.41,0,0,1-.48-.29l-.09-.38-.39.09A.38.38,0,0,1,3,10.56l-.1-.39-.38.1A.4.4,0,0,1,2,10l-.1-.38-.38.1a.33.33,0,0,1-.14,0l-.1.18a.34.34,0,0,0-.06.15L.64,14.24a.39.39,0,0,0,.34.44.35.35,0,0,0,.28-.07l3.45-2.49A.43.43,0,0,0,4.82,12l.1-.17Z" transform="translate(-0.49 -0.1)"/></svg>