<svg xmlns="http://www.w3.org/2000/svg" width="0.24in" height="0.24in" viewBox="0 0 17.32 17.32"><path d="M14.94.27l0,0L12.8,2.4a.24.24,0,0,0-.06.24l.18.91c.07.31.13.62.2.93a.15.15,0,0,0,.13.13L15.09,5h.15s0,0,0,0l1.8-1.81.33-.33,0,0c0,.11,0,.22.05.33a3.17,3.17,0,0,1-.31,1.6,3,3,0,0,1-.61.88,3.23,3.23,0,0,1-1.09.7,2.91,2.91,0,0,1-1.12.23,2.85,2.85,0,0,1-.77-.09.88.88,0,0,0-.16,0l0,0-1,1L11,8.84l-.53.52a.17.17,0,0,0,0,.19c.34.34.69.68,1,1a.2.2,0,0,0,.23.05l.93-.31a.94.94,0,0,1,1,.19l.07.06,3.63,3.62a1.4,1.4,0,0,1,.22.32v0c0,.24,0,.47,0,.71a.19.19,0,0,1,0,.07,1,1,0,0,1-.21.3L15.61,17.3a1.16,1.16,0,0,1-.31.22h-.75l-.06,0a.81.81,0,0,1-.3-.21c-1.21-1.21-2.42-2.41-3.62-3.62a1,1,0,0,1-.31-.68.86.86,0,0,1,.05-.32c.11-.32.21-.64.32-.95a.86.86,0,0,0,0-.16.08.08,0,0,0,0,0L9.54,10.44l-.06,0a.19.19,0,0,0-.17.07L8,11.79l-1.1,1.09-.46.45,0,.07a.8.8,0,0,0,.06.3,3,3,0,0,1-.26,2,3.16,3.16,0,0,1-2.7,1.78,2.9,2.9,0,0,1-1.36-.26A3.1,3.1,0,0,1,.22,14.57,2.93,2.93,0,0,1,.55,13a3.1,3.1,0,0,1,2.21-1.7,2.89,2.89,0,0,1,1.43.05h.2l.91-.93.48-.49L7.14,8.52l.15-.15a.17.17,0,0,0,0-.18l-3-3a1,1,0,0,0-.72-.3A1.32,1.32,0,0,1,3,4.78a1.05,1.05,0,0,1-.36-.3C1.84,3.39,1.06,2.31.28,1.22l0,0L1.19.26l.36.26L4.47,2.6a1,1,0,0,1,.4.66c0,.1,0,.2,0,.29a1.06,1.06,0,0,0,.31.74L8.09,7.18l.05.06a.15.15,0,0,0,.15.06.11.11,0,0,0,.08,0L9.61,6l1-1,.66-.66a.14.14,0,0,0,0-.06,1,1,0,0,0,0-.3,2.93,2.93,0,0,1,.1-1.58,3.11,3.11,0,0,1,.78-1.26,3.21,3.21,0,0,1,1.95-.9,3.15,3.15,0,0,1,.81,0ZM1,14.36s0,.08,0,.12l.22.42a.19.19,0,0,1,0,.07c0,.15,0,.31,0,.46a.19.19,0,0,0,.08.16l0,0,.37.25.05.05.25.37a.2.2,0,0,0,.19.12l.44,0,.08,0,.44.23a.23.23,0,0,0,.2,0l.44-.23.08,0,.51,0h0l.09-.11.24-.36,0-.06.39-.25a.2.2,0,0,0,.1-.18c0-.14,0-.29,0-.43a.45.45,0,0,1,0-.11l.22-.42a.23.23,0,0,0,0-.2c-.07-.15-.15-.3-.23-.45a.14.14,0,0,1,0-.07c0-.15,0-.3,0-.45a.21.21,0,0,0-.1-.18l0,0c-.13-.07-.25-.15-.37-.23a.1.1,0,0,1,0-.06c-.09-.12-.17-.25-.25-.38a.22.22,0,0,0-.19-.11c-.14,0-.29,0-.43,0l-.08,0-.45-.23a.23.23,0,0,0-.2,0l-.44.23H2.76l-.45,0a.25.25,0,0,0-.17.08l0,0c-.08.12-.16.25-.25.37a.1.1,0,0,1-.05.06l-.38.24a.22.22,0,0,0-.11.2c0,.15,0,.3,0,.45a.14.14,0,0,1,0,.06c-.07.14-.14.28-.22.42A.93.93,0,0,1,1,14.36Zm14.43,1.78h.15a.69.69,0,0,0,.46-.36.53.53,0,0,0,.07-.28.68.68,0,0,0-.23-.55l-3.27-3.27-.1-.09a.73.73,0,0,0-.56-.09.68.68,0,0,0-.4.29.6.6,0,0,0-.1.4.58.58,0,0,0,.19.46L15,15.93A.64.64,0,0,0,15.46,16.14Z" transform="translate(-0.21 -0.21)"/></svg>