<svg xmlns="http://www.w3.org/2000/svg" width="0.24in" height="0.24in" viewBox="0 0 17.6 17.6"><path d="M.09,8.89a8.81,8.81,0,1,1,8.81,8.8A8.8,8.8,0,0,1,.09,8.89ZM8.35,1.27a3.85,3.85,0,0,0-2.08,2c-.16.3-.3.62-.44,1a14.94,14.94,0,0,0,2.52.32ZM4.77,4A8.58,8.58,0,0,1,5.3,2.79a7.67,7.67,0,0,1,.65-1,7.62,7.62,0,0,0-2.5,1.67A10.08,10.08,0,0,0,4.77,4ZM4,8.34A14.83,14.83,0,0,1,4.43,5a10,10,0,0,1-1.72-.74,7.8,7.8,0,0,0-1.5,4.05Zm1.54-3a14.68,14.68,0,0,0-.44,3h3.3V5.69A15.09,15.09,0,0,1,5.49,5.32Zm4,.37V8.34h3.29a14,14,0,0,0-.44-3,15.09,15.09,0,0,1-2.85.37ZM5.06,9.44a13.32,13.32,0,0,0,.43,3,15.33,15.33,0,0,1,2.86-.36V9.44Zm4.39,0v2.65a15.1,15.1,0,0,1,2.85.36,13.89,13.89,0,0,0,.44-3ZM5.83,13.5a8.61,8.61,0,0,0,.44,1,3.85,3.85,0,0,0,2.08,2V13.19a14,14,0,0,0-2.52.31ZM6,16a7.49,7.49,0,0,1-.66-1,9.78,9.78,0,0,1-.53-1.19,10.76,10.76,0,0,0-1.32.54A7.81,7.81,0,0,0,6,16ZM4.43,12.75A15.37,15.37,0,0,1,4,9.44H1.21a7.8,7.8,0,0,0,1.5,4A10.34,10.34,0,0,1,4.43,12.75ZM11.84,16a7.81,7.81,0,0,0,2.5-1.68A8.87,8.87,0,0,0,13,13.8,8.88,8.88,0,0,1,12.49,15,8.49,8.49,0,0,1,11.84,16ZM9.45,13.19V16.5a3.87,3.87,0,0,0,2.07-2,7.12,7.12,0,0,0,.44-1,14.23,14.23,0,0,0-2.51-.31Zm3.91-.44a10.34,10.34,0,0,1,1.72.73,7.63,7.63,0,0,0,1.5-4H13.84A15.37,15.37,0,0,1,13.36,12.75Zm3.22-4.41a7.63,7.63,0,0,0-1.5-4A10.36,10.36,0,0,1,13.36,5a14.83,14.83,0,0,1,.48,3.31ZM12.49,2.79A8.58,8.58,0,0,1,13,4a9.61,9.61,0,0,0,1.32-.54,7.78,7.78,0,0,0-2.5-1.67A6.57,6.57,0,0,1,12.49,2.79ZM12,4.27a8.33,8.33,0,0,0-.44-1,3.91,3.91,0,0,0-2.07-2V4.59A15,15,0,0,0,12,4.27Z" transform="translate(-0.09 -0.09)" fill="#fff"/></svg>